<mxfile host="app.diagrams.net" agent="Mozilla/5.0 (Windows NT 10.0; Win64; x64; rv:136.0) Gecko/20100101 Firefox/136.0" version="27.2.0">
  <diagram name="Page-1" id="DHuM1axFLLnh3QernCQQ">
    <mxGraphModel dx="2153" dy="1814" grid="1" gridSize="10" guides="1" tooltips="1" connect="1" arrows="1" fold="1" page="1" pageScale="1" pageWidth="850" pageHeight="1100" math="0" shadow="0">
      <root>
        <mxCell id="0" />
        <mxCell id="1" parent="0" />
        <mxCell id="LFIkx6h78dEoTtOIi-fp-30" value="" style="rounded=0;whiteSpace=wrap;html=1;fillColor=#E3FFF9;strokeColor=#0e8088;" vertex="1" parent="1">
          <mxGeometry x="1220" y="-60" width="1290" height="1290" as="geometry" />
        </mxCell>
        <mxCell id="LFIkx6h78dEoTtOIi-fp-28" value="" style="rounded=0;whiteSpace=wrap;html=1;fillColor=#E3FFF9;strokeColor=#0e8088;" vertex="1" parent="1">
          <mxGeometry x="-120" y="-60" width="1290" height="1290" as="geometry" />
        </mxCell>
        <mxCell id="HNTx7v4-bAwA_o5vwCcX-24" value="" style="rounded=0;whiteSpace=wrap;html=1;" parent="1" vertex="1">
          <mxGeometry x="120" y="480" width="380" height="640" as="geometry" />
        </mxCell>
        <mxCell id="HNTx7v4-bAwA_o5vwCcX-18" value="" style="edgeStyle=orthogonalEdgeStyle;rounded=0;orthogonalLoop=1;jettySize=auto;html=1;" parent="1" source="HNTx7v4-bAwA_o5vwCcX-1" target="HNTx7v4-bAwA_o5vwCcX-2" edge="1">
          <mxGeometry relative="1" as="geometry" />
        </mxCell>
        <mxCell id="HNTx7v4-bAwA_o5vwCcX-1" value="Hi, sweetie! You look a bit hungry. The soup’s not quite ready yet, didn’t expect hungry folks so early!" style="rounded=0;whiteSpace=wrap;html=1;" parent="1" vertex="1">
          <mxGeometry x="200" y="-20" width="220" height="110" as="geometry" />
        </mxCell>
        <mxCell id="HNTx7v4-bAwA_o5vwCcX-2" value="But I suppose today’s special, isn’t it? First day hunting with old Bran, and all. Can’t blame you for being eager!" style="rounded=0;whiteSpace=wrap;html=1;" parent="1" vertex="1">
          <mxGeometry x="200" y="130" width="220" height="80" as="geometry" />
        </mxCell>
        <mxCell id="HNTx7v4-bAwA_o5vwCcX-3" value="We’re all counting on you and Bran to bring back some good meat. But an empty stomach won’t help, hm?" style="rounded=0;whiteSpace=wrap;html=1;" parent="1" vertex="1">
          <mxGeometry x="200" y="250" width="220" height="60" as="geometry" />
        </mxCell>
        <mxCell id="HNTx7v4-bAwA_o5vwCcX-4" value="Tell you what, if you lend me a hand finishing the soup, you’ll get the first bowl. Fair deal?" style="rounded=0;whiteSpace=wrap;html=1;" parent="1" vertex="1">
          <mxGeometry x="200" y="350" width="220" height="80" as="geometry" />
        </mxCell>
        <mxCell id="HNTx7v4-bAwA_o5vwCcX-5" value="Of course! What do you need?" style="rounded=1;whiteSpace=wrap;html=1;" parent="1" vertex="1">
          <mxGeometry x="200" y="520" width="220" height="30" as="geometry" />
        </mxCell>
        <mxCell id="HNTx7v4-bAwA_o5vwCcX-6" value="Wonderful! The meat&#39;s in the storage out back. Take your pick: rabbit, boar or venison. Oh, and snip some thyme and rosemary from the garden too. Fresh herbs make all the difference, trust me!" style="rounded=0;whiteSpace=wrap;html=1;" parent="1" vertex="1">
          <mxGeometry x="550" y="485" width="300" height="100" as="geometry" />
        </mxCell>
        <mxCell id="HNTx7v4-bAwA_o5vwCcX-7" value="I&#39;m in a hurry. Can&#39;t I just grab something quick?" style="rounded=1;whiteSpace=wrap;html=1;" parent="1" vertex="1">
          <mxGeometry x="200" y="640" width="220" height="50" as="geometry" />
        </mxCell>
        <mxCell id="HNTx7v4-bAwA_o5vwCcX-8" value="Now, now, even Bran wouldn’t send you off half-starved! It’ll take just a minute. Fetch some meat from the storage and herbs from the garden." style="rounded=0;whiteSpace=wrap;html=1;" parent="1" vertex="1">
          <mxGeometry x="550" y="630" width="300" height="70" as="geometry" />
        </mxCell>
        <mxCell id="HNTx7v4-bAwA_o5vwCcX-9" value="Faster you help, faster you eat! I&#39;ll promise it will be worth it. Nothing better to get your gears going early in the morning than a warm, hearty soup!" style="rounded=0;whiteSpace=wrap;html=1;" parent="1" vertex="1">
          <mxGeometry x="550" y="720" width="300" height="80" as="geometry" />
        </mxCell>
        <mxCell id="HNTx7v4-bAwA_o5vwCcX-10" value="Oh, and don’t skimp on the thyme and rosemary from the garden - spices make the soul of the soup!" style="rounded=0;whiteSpace=wrap;html=1;" parent="1" vertex="1">
          <mxGeometry x="550" y="817.5" width="300" height="60" as="geometry" />
        </mxCell>
        <mxCell id="HNTx7v4-bAwA_o5vwCcX-11" value="What&#39;s in the soup anyway?" style="rounded=1;whiteSpace=wrap;html=1;" parent="1" vertex="1">
          <mxGeometry x="210" y="920" width="220" height="30" as="geometry" />
        </mxCell>
        <mxCell id="HNTx7v4-bAwA_o5vwCcX-12" value="" style="endArrow=classic;html=1;rounded=0;entryX=0;entryY=0.5;entryDx=0;entryDy=0;exitX=1;exitY=0.5;exitDx=0;exitDy=0;" parent="1" source="HNTx7v4-bAwA_o5vwCcX-7" target="HNTx7v4-bAwA_o5vwCcX-8" edge="1">
          <mxGeometry width="50" height="50" relative="1" as="geometry">
            <mxPoint x="420" y="649.5" as="sourcePoint" />
            <mxPoint x="490" y="649.5" as="targetPoint" />
          </mxGeometry>
        </mxCell>
        <mxCell id="HNTx7v4-bAwA_o5vwCcX-13" value="" style="endArrow=classic;html=1;rounded=0;entryX=0;entryY=0.5;entryDx=0;entryDy=0;exitX=1;exitY=0.5;exitDx=0;exitDy=0;" parent="1" source="HNTx7v4-bAwA_o5vwCcX-5" target="HNTx7v4-bAwA_o5vwCcX-6" edge="1">
          <mxGeometry width="50" height="50" relative="1" as="geometry">
            <mxPoint x="420" y="474.5" as="sourcePoint" />
            <mxPoint x="490" y="474" as="targetPoint" />
          </mxGeometry>
        </mxCell>
        <mxCell id="HNTx7v4-bAwA_o5vwCcX-14" value="Ah, my secret recipe! A rich bone broth, earthy root vegetables, and whatever fine meat we’ve got." style="rounded=0;whiteSpace=wrap;html=1;" parent="1" vertex="1">
          <mxGeometry x="550" y="905" width="300" height="60" as="geometry" />
        </mxCell>
        <mxCell id="HNTx7v4-bAwA_o5vwCcX-15" value="" style="endArrow=classic;html=1;rounded=0;entryX=0;entryY=0.5;entryDx=0;entryDy=0;exitX=1;exitY=0.5;exitDx=0;exitDy=0;" parent="1" source="HNTx7v4-bAwA_o5vwCcX-11" target="HNTx7v4-bAwA_o5vwCcX-14" edge="1">
          <mxGeometry width="50" height="50" relative="1" as="geometry">
            <mxPoint x="430" y="870" as="sourcePoint" />
            <mxPoint x="490" y="870" as="targetPoint" />
          </mxGeometry>
        </mxCell>
        <mxCell id="HNTx7v4-bAwA_o5vwCcX-16" value="The trick’s a pinch of patience… and a dash of love, if you’ve got any to spare!" style="rounded=0;whiteSpace=wrap;html=1;" parent="1" vertex="1">
          <mxGeometry x="550" y="1000" width="300" height="60" as="geometry" />
        </mxCell>
        <mxCell id="HNTx7v4-bAwA_o5vwCcX-17" value="" style="endArrow=classic;html=1;rounded=0;" parent="1" edge="1">
          <mxGeometry width="50" height="50" relative="1" as="geometry">
            <mxPoint x="310" y="90" as="sourcePoint" />
            <mxPoint x="310" y="130" as="targetPoint" />
          </mxGeometry>
        </mxCell>
        <mxCell id="HNTx7v4-bAwA_o5vwCcX-21" value="" style="endArrow=classic;html=1;rounded=0;" parent="1" edge="1">
          <mxGeometry width="50" height="50" relative="1" as="geometry">
            <mxPoint x="310" y="210" as="sourcePoint" />
            <mxPoint x="310" y="250" as="targetPoint" />
          </mxGeometry>
        </mxCell>
        <mxCell id="HNTx7v4-bAwA_o5vwCcX-22" value="" style="endArrow=classic;html=1;rounded=0;entryX=0.5;entryY=0;entryDx=0;entryDy=0;" parent="1" target="HNTx7v4-bAwA_o5vwCcX-4" edge="1">
          <mxGeometry width="50" height="50" relative="1" as="geometry">
            <mxPoint x="310" y="310" as="sourcePoint" />
            <mxPoint x="360" y="260" as="targetPoint" />
          </mxGeometry>
        </mxCell>
        <mxCell id="HNTx7v4-bAwA_o5vwCcX-23" value="" style="endArrow=classic;html=1;rounded=0;entryX=0.5;entryY=0;entryDx=0;entryDy=0;" parent="1" target="HNTx7v4-bAwA_o5vwCcX-24" edge="1">
          <mxGeometry width="50" height="50" relative="1" as="geometry">
            <mxPoint x="310" y="430" as="sourcePoint" />
            <mxPoint x="310" y="440" as="targetPoint" />
          </mxGeometry>
        </mxCell>
        <mxCell id="HNTx7v4-bAwA_o5vwCcX-27" value="" style="endArrow=classic;html=1;rounded=0;entryX=0.5;entryY=0;entryDx=0;entryDy=0;exitX=0.5;exitY=1;exitDx=0;exitDy=0;" parent="1" source="HNTx7v4-bAwA_o5vwCcX-8" target="HNTx7v4-bAwA_o5vwCcX-9" edge="1">
          <mxGeometry width="50" height="50" relative="1" as="geometry">
            <mxPoint x="870" y="720" as="sourcePoint" />
            <mxPoint x="870" y="740" as="targetPoint" />
          </mxGeometry>
        </mxCell>
        <mxCell id="HNTx7v4-bAwA_o5vwCcX-28" value="" style="endArrow=classic;html=1;rounded=0;entryX=0.5;entryY=0;entryDx=0;entryDy=0;exitX=0.5;exitY=1;exitDx=0;exitDy=0;" parent="1" source="HNTx7v4-bAwA_o5vwCcX-9" target="HNTx7v4-bAwA_o5vwCcX-10" edge="1">
          <mxGeometry width="50" height="50" relative="1" as="geometry">
            <mxPoint x="870" y="830" as="sourcePoint" />
            <mxPoint x="920" y="780" as="targetPoint" />
          </mxGeometry>
        </mxCell>
        <mxCell id="HNTx7v4-bAwA_o5vwCcX-29" value="" style="endArrow=classic;html=1;rounded=0;entryX=0.5;entryY=0;entryDx=0;entryDy=0;exitX=0.5;exitY=1;exitDx=0;exitDy=0;" parent="1" target="HNTx7v4-bAwA_o5vwCcX-16" edge="1" source="HNTx7v4-bAwA_o5vwCcX-14">
          <mxGeometry width="50" height="50" relative="1" as="geometry">
            <mxPoint x="870" y="980" as="sourcePoint" />
            <mxPoint x="920" y="930" as="targetPoint" />
          </mxGeometry>
        </mxCell>
        <mxCell id="LFIkx6h78dEoTtOIi-fp-1" value="" style="endArrow=classic;html=1;rounded=0;" edge="1" parent="1">
          <mxGeometry width="50" height="50" relative="1" as="geometry">
            <mxPoint x="850" y="535" as="sourcePoint" />
            <mxPoint x="900" y="535" as="targetPoint" />
          </mxGeometry>
        </mxCell>
        <mxCell id="LFIkx6h78dEoTtOIi-fp-2" value="Event: &lt;br&gt;Update A Healthy Breakfast to stage 2" style="shape=hexagon;perimeter=hexagonPerimeter2;whiteSpace=wrap;html=1;fixedSize=1;" vertex="1" parent="1">
          <mxGeometry x="900" y="495" width="230" height="80" as="geometry" />
        </mxCell>
        <mxCell id="LFIkx6h78dEoTtOIi-fp-3" value="Condition:&lt;br&gt;A Healthy Breakfast started &amp;amp; stage 2 not begun" style="shape=hexagon;perimeter=hexagonPerimeter2;whiteSpace=wrap;html=1;fixedSize=1;" vertex="1" parent="1">
          <mxGeometry x="-40" width="180" height="80" as="geometry" />
        </mxCell>
        <mxCell id="LFIkx6h78dEoTtOIi-fp-4" value="" style="endArrow=classic;html=1;rounded=0;entryX=1;entryY=0.5;entryDx=0;entryDy=0;" edge="1" parent="1" target="LFIkx6h78dEoTtOIi-fp-3">
          <mxGeometry width="50" height="50" relative="1" as="geometry">
            <mxPoint x="200" y="40" as="sourcePoint" />
            <mxPoint x="250" y="-10" as="targetPoint" />
          </mxGeometry>
        </mxCell>
        <mxCell id="LFIkx6h78dEoTtOIi-fp-5" value="Condition:&lt;br&gt;A Healthy Breakfast stage 2 begun &amp;amp; quest not completed" style="shape=hexagon;perimeter=hexagonPerimeter2;whiteSpace=wrap;html=1;fixedSize=1;" vertex="1" parent="1">
          <mxGeometry x="1290" y="130" width="240" height="80" as="geometry" />
        </mxCell>
        <mxCell id="LFIkx6h78dEoTtOIi-fp-6" value="" style="endArrow=classic;html=1;rounded=0;entryX=1;entryY=0.5;entryDx=0;entryDy=0;" edge="1" parent="1" target="LFIkx6h78dEoTtOIi-fp-5">
          <mxGeometry width="50" height="50" relative="1" as="geometry">
            <mxPoint x="1580" y="170" as="sourcePoint" />
            <mxPoint x="1630" y="120" as="targetPoint" />
          </mxGeometry>
        </mxCell>
        <mxCell id="LFIkx6h78dEoTtOIi-fp-7" value="How’s the soup going, dearie? Need a nudge in the right direction, or are you all set?" style="rounded=0;whiteSpace=wrap;html=1;" vertex="1" parent="1">
          <mxGeometry x="1580" y="130" width="210" height="80" as="geometry" />
        </mxCell>
        <mxCell id="LFIkx6h78dEoTtOIi-fp-8" value="" style="endArrow=classic;html=1;rounded=0;exitX=0.5;exitY=1;exitDx=0;exitDy=0;entryX=0.5;entryY=1;entryDx=0;entryDy=0;" edge="1" parent="1" source="HNTx7v4-bAwA_o5vwCcX-16" target="HNTx7v4-bAwA_o5vwCcX-24">
          <mxGeometry width="50" height="50" relative="1" as="geometry">
            <mxPoint x="725" y="1020" as="sourcePoint" />
            <mxPoint x="380" y="999.9999999999995" as="targetPoint" />
            <Array as="points">
              <mxPoint x="700" y="1180" />
              <mxPoint x="520" y="1180" />
              <mxPoint x="310" y="1180" />
            </Array>
          </mxGeometry>
        </mxCell>
        <mxCell id="LFIkx6h78dEoTtOIi-fp-9" value="" style="endArrow=classic;html=1;rounded=0;exitX=0.5;exitY=1;exitDx=0;exitDy=0;entryX=0;entryY=0.5;entryDx=0;entryDy=0;" edge="1" parent="1" source="LFIkx6h78dEoTtOIi-fp-7" target="LFIkx6h78dEoTtOIi-fp-10">
          <mxGeometry width="50" height="50" relative="1" as="geometry">
            <mxPoint x="1710" y="260" as="sourcePoint" />
            <mxPoint x="1760" y="210" as="targetPoint" />
          </mxGeometry>
        </mxCell>
        <mxCell id="LFIkx6h78dEoTtOIi-fp-10" value="" style="rounded=0;whiteSpace=wrap;html=1;direction=south;" vertex="1" parent="1">
          <mxGeometry x="1510" y="260" width="350" height="270" as="geometry" />
        </mxCell>
        <mxCell id="LFIkx6h78dEoTtOIi-fp-12" value="I’m good. Just checking in!" style="rounded=1;whiteSpace=wrap;html=1;" vertex="1" parent="1">
          <mxGeometry x="1580" y="480" width="220" height="30" as="geometry" />
        </mxCell>
        <mxCell id="LFIkx6h78dEoTtOIi-fp-13" value="Who taught you to cook like this?" style="rounded=1;whiteSpace=wrap;html=1;align=center;" vertex="1" parent="1">
          <mxGeometry x="1580" y="280" width="220" height="30" as="geometry" />
        </mxCell>
        <mxCell id="LFIkx6h78dEoTtOIi-fp-14" value="My granny, bless her stubborn heart. She’d say, ‘A good soup hides &lt;br&gt;three things: the cook’s tears, the meat’s sins, and how long you forgot&lt;br&gt; to stir it.’ [laughs] Mostly the last one." style="rounded=0;whiteSpace=wrap;html=1;" vertex="1" parent="1">
          <mxGeometry x="1910" y="250" width="290" height="90" as="geometry" />
        </mxCell>
        <mxCell id="LFIkx6h78dEoTtOIi-fp-15" value="" style="endArrow=classic;html=1;rounded=0;exitX=1;exitY=0.5;exitDx=0;exitDy=0;entryX=0;entryY=0.5;entryDx=0;entryDy=0;" edge="1" parent="1" source="LFIkx6h78dEoTtOIi-fp-13" target="LFIkx6h78dEoTtOIi-fp-14">
          <mxGeometry width="50" height="50" relative="1" as="geometry">
            <mxPoint x="1840" y="320" as="sourcePoint" />
            <mxPoint x="1890" y="270" as="targetPoint" />
          </mxGeometry>
        </mxCell>
        <mxCell id="LFIkx6h78dEoTtOIi-fp-29" value="&lt;font style=&quot;font-size: 27px;&quot;&gt;AHealthyBreakfast_Stage1&lt;/font&gt;" style="rounded=0;whiteSpace=wrap;html=1;" vertex="1" parent="1">
          <mxGeometry x="-120" y="-120" width="1290" height="60" as="geometry" />
        </mxCell>
        <mxCell id="LFIkx6h78dEoTtOIi-fp-31" value="&lt;div&gt;&lt;font style=&quot;font-size: 27px;&quot;&gt;AHealthyBreakfast_Stage2&lt;/font&gt;&lt;/div&gt;" style="rounded=0;whiteSpace=wrap;html=1;" vertex="1" parent="1">
          <mxGeometry x="1220" y="-120" width="1290" height="60" as="geometry" />
        </mxCell>
        <mxCell id="LFIkx6h78dEoTtOIi-fp-32" value="What&#39;s in the soup anyway?" style="rounded=1;whiteSpace=wrap;html=1;" vertex="1" parent="1">
          <mxGeometry x="1580" y="405" width="220" height="30" as="geometry" />
        </mxCell>
        <mxCell id="LFIkx6h78dEoTtOIi-fp-33" value="Ah, my secret recipe! A rich bone broth, earthy root vegetables, and whatever fine meat we’ve got." style="rounded=0;whiteSpace=wrap;html=1;" vertex="1" parent="1">
          <mxGeometry x="1910" y="390" width="300" height="60" as="geometry" />
        </mxCell>
        <mxCell id="LFIkx6h78dEoTtOIi-fp-34" value="The trick’s a pinch of patience… and a dash of love, if you’ve got any to spare!" style="rounded=0;whiteSpace=wrap;html=1;" vertex="1" parent="1">
          <mxGeometry x="1910" y="465" width="300" height="60" as="geometry" />
        </mxCell>
        <mxCell id="LFIkx6h78dEoTtOIi-fp-35" value="" style="endArrow=classic;html=1;rounded=0;exitX=0.5;exitY=1;exitDx=0;exitDy=0;" edge="1" source="LFIkx6h78dEoTtOIi-fp-34" parent="1">
          <mxGeometry width="50" height="50" relative="1" as="geometry">
            <mxPoint x="2095" y="390" as="sourcePoint" />
            <mxPoint x="1680" y="530" as="targetPoint" />
            <Array as="points">
              <mxPoint x="2060" y="550" />
              <mxPoint x="1890" y="550" />
              <mxPoint x="1680" y="550" />
            </Array>
          </mxGeometry>
        </mxCell>
        <mxCell id="LFIkx6h78dEoTtOIi-fp-36" value="" style="endArrow=classic;html=1;rounded=0;exitX=1;exitY=0.5;exitDx=0;exitDy=0;entryX=0;entryY=0.5;entryDx=0;entryDy=0;" edge="1" parent="1" source="LFIkx6h78dEoTtOIi-fp-32" target="LFIkx6h78dEoTtOIi-fp-33">
          <mxGeometry width="50" height="50" relative="1" as="geometry">
            <mxPoint x="1850" y="280" as="sourcePoint" />
            <mxPoint x="1900" y="230" as="targetPoint" />
          </mxGeometry>
        </mxCell>
        <mxCell id="LFIkx6h78dEoTtOIi-fp-37" value="" style="endArrow=classic;html=1;rounded=0;exitX=0.5;exitY=1;exitDx=0;exitDy=0;entryX=0.5;entryY=0;entryDx=0;entryDy=0;" edge="1" parent="1" source="LFIkx6h78dEoTtOIi-fp-33" target="LFIkx6h78dEoTtOIi-fp-34">
          <mxGeometry width="50" height="50" relative="1" as="geometry">
            <mxPoint x="2060" y="455" as="sourcePoint" />
            <mxPoint x="2110" y="405" as="targetPoint" />
          </mxGeometry>
        </mxCell>
        <mxCell id="LFIkx6h78dEoTtOIi-fp-38" value="" style="endArrow=classic;html=1;rounded=0;exitX=0.5;exitY=1;exitDx=0;exitDy=0;entryX=0.397;entryY=-0.003;entryDx=0;entryDy=0;entryPerimeter=0;" edge="1" parent="1" source="LFIkx6h78dEoTtOIi-fp-14" target="LFIkx6h78dEoTtOIi-fp-10">
          <mxGeometry width="50" height="50" relative="1" as="geometry">
            <mxPoint x="2090" y="380" as="sourcePoint" />
            <mxPoint x="2140" y="330" as="targetPoint" />
            <Array as="points">
              <mxPoint x="2055" y="367" />
            </Array>
          </mxGeometry>
        </mxCell>
      </root>
    </mxGraphModel>
  </diagram>
</mxfile>
